<svg id="Calque_1" data-name="Calque 1" xmlns="http://www.w3.org/2000/svg" viewBox="0 0 622 621"><defs><style>.cls-1{fill:#f9d425;}.cls-2{fill:#fff;}</style></defs><title>Plan de travail 7</title><path d="M364.11,509.28c-1.6,28.55-10.29,54.35-24.76,78.12a336.48,336.48,0,0,1-20,28.31c-5.84,7.65-10.25,7.62-16.27.3C278.75,586.4,262,553.42,258.78,514.54a51.75,51.75,0,0,0-1-5.27c-2.78,3.79-5,7-7.39,10-22.83,29-52.45,48.22-86.94,60.41-6.43,2.28-10.51-.21-11.73-7.1-6.91-39-4.75-76.91,12.74-113.12.45-.94.78-1.92,1.08-2.68-11.77,3.91-23.27,8.49-35.17,11.53-26.4,6.77-53.16,6.43-79.9,1.92-9.18-1.54-11.29-5.45-7.91-14.35,13.87-36.5,34.41-68,67.53-90.13a33.49,33.49,0,0,0,2.58-2.24c-7.59-1-14.42-1.57-21.11-2.83-32-6.06-59.91-20.9-85-41.33-8.65-7.05-8.58-11.09,0-18.09,26.72-21.69,56.43-37,90.8-42.34,2.37-.36,4.77-.48,7.16-.71l8.37-.81c-2.47-2-3.83-3.17-5.31-4.2-32.29-22.42-52.18-53.9-65.67-90-2.71-7.24-.3-11.1,7.62-12.46,38-6.48,75.19-4.49,110.8,11.88,1.3.6,2.68,1,5,1.92a33.4,33.4,0,0,0-1.15-3.7C147.14,125,144.77,87.48,151.54,49c1.42-8.09,5.39-10.46,12.94-7.68C201.59,55,233.27,76,255.93,109.2c.36.53.74,1,1.73,2.46,1.43-9.13,2.32-17.24,4-25.17,6.73-31.43,21.85-58.66,42.43-83,4.64-5.49,9.79-5.21,14.76.77C344.15,34.66,361,68.77,363.92,108.82a14.33,14.33,0,0,0,.39,1.79c.49-.11,1.06-.07,1.22-.3,22.28-32.79,53.2-54.19,89.79-68.09,10.72-4.08,14.38-2,16.06,9.17,5.79,38.36,3.61,75.71-14.06,111.11-.25.5-.14,1.19-.08.65,14.47-4.25,29-9.63,44-12.65,23.72-4.78,47.75-4.35,71.58.23,8.21,1.58,10.34,5.18,7.39,13-13.77,36.77-34.28,68.58-67.55,90.89-.7.47-1.32,1.07-3,2.43,2.68.45,4.39.86,6.13,1,39.39,3.21,72.6,20.45,102.36,45.32,6.11,5.11,5.64,9.39-1.27,15-29.5,24.09-62.24,40.88-100.86,44.18-1.84.16-3.67.47-4.28.55,11.25,10.87,23.45,21.37,34.1,33.27,15.27,17.06,25.8,37.21,33.78,58.65,3.7,9.94,1.57,13.75-8.82,15.35-38.57,5.94-76.14,3.67-111.81-13.87a9,9,0,0,0-1.89-.32,34.18,34.18,0,0,0,1.35,4.17c17,35.67,18.8,73.06,12.47,111.32-1.37,8.28-5.61,10.43-13.67,7.42-37.08-13.82-68.68-35-91.2-68.26A12.64,12.64,0,0,0,364.11,509.28Zm-53-120.73a78.23,78.23,0,1,0,.19-156.46c-43-.1-78.17,34.73-78.35,77.49C232.73,353.48,267.34,388.45,311.07,388.55ZM166.44,562.13c34.26-15.33,64.49-35,82.21-69.45,15.73-30.58,17.71-63.08,13.35-96.79C180.86,428.47,154.69,491.41,166.44,562.13Zm145-350.4c23.46-31.6,39.49-65.14,36.61-104.95-2.39-32.95-16.82-61.11-36.73-87.14C261.28,84.12,262.12,148.63,311.44,211.73ZM60,455.63c40.84,6.57,82-1.42,110.53-21.72,26.22-18.68,42.66-44.68,55.37-73.85C154.47,344.91,76.05,390.24,60,455.63Zm251.48,145.3c22.91-30.77,38.93-63.78,36.62-103.08-2-33.68-16.6-62.35-36.87-89C260.43,474.86,263,539.72,311.51,600.93ZM166.3,59.48C146,119.53,197.89,209.31,261.39,224.13,281.61,163.91,229.1,73,166.3,59.48Zm290.16,0c-21.18,3.7-61.85,34.07-76.85,57.94-20.72,33-24.05,69.18-19.33,107C432.55,196.61,468,140.28,456.46,59.43ZM211.91,310.28c-61.74-49.4-129.24-49.37-190.87,0C82.9,359.8,150.34,359.91,211.91,310.28Zm184.63-48.92c38,3.64,74.32,2,107-19.32,28.58-18.6,46-45.89,59.56-76.75C488.68,155.1,429.68,180.59,396.54,261.36Zm.45,98.27c30.08,76.89,89.06,107,165.43,95.77C533.05,381.38,478.05,349.16,397,359.63ZM456.3,561.54c11.77-79.35-22.26-136.8-95.54-165.21C348.94,474.93,382.3,532.67,456.3,561.54ZM59.05,164.79c14.82,33.85,33.84,62.81,65.8,81,31.33,17.8,65.37,19.35,101.39,15.44-15.2-34.13-34.37-63.55-67.05-81.57C128.14,162.5,94.59,160.84,59.05,164.79Zm543,145.89c-63.62-49.37-127.94-50.05-192.49-.11,27.67,20.36,57.09,35.59,92,36.84C539.74,348.76,571.63,332.74,602.09,310.68Zm-174.16,31c-8.65-5.57-16.19-10.41-24-15.42-1.56,5.92-3,11.26-4.49,17Zm-233.65,0,28.58,1.46c-1.55-5.85-3-11.2-4.49-16.9ZM342.46,427c.48-10.14.9-19,1.35-28.33l-16.8,4.4ZM343,221.73V194.81l-1.22-.13-14.77,23ZM225.78,225l12.68,24.54,12.45-11.79Zm200.28,55.2c0-.44-.05-.89-.07-1.33l-26.53-1.16c1.66,6.1,3,11.21,4.54,16.71ZM396.6,224.94l-24.78,12.68L384,249.4ZM194.43,279l24,15.4c1.5-5.82,2.81-10.95,4.29-16.74ZM225.8,395.7l23.8-12.21L238.48,371Zm146.38-12.4,24.26,12.15L384,371.3ZM295.4,403l-16.92-4.19c.51,9.3,1,17.79,1.54,27.92C285.7,418,290.45,410.64,295.4,403ZM280,193.87c-.5,10.28-.92,18.9-1.36,28.12l16.77-4.47Z"/><path class="cls-1" d="M311.07,388.55c-43.73-.1-78.34-35.07-78.16-79,.18-42.76,35.39-77.59,78.35-77.49a78.23,78.23,0,1,1-.19,156.46Z"/><path class="cls-2" d="M166.44,562.13C154.69,491.41,180.86,428.47,262,395.89c4.36,33.71,2.38,66.21-13.35,96.79C230.93,527.12,200.7,546.8,166.44,562.13Z"/><path class="cls-2" d="M311.44,211.73c-49.32-63.1-50.16-127.61-.12-192.09,19.91,26,34.34,54.19,36.73,87.14C350.93,146.59,334.9,180.13,311.44,211.73Z"/><path class="cls-2" d="M60,455.63c16-65.39,94.44-110.72,165.9-95.57-12.71,29.17-29.15,55.17-55.37,73.85C142.06,454.21,100.87,462.2,60,455.63Z"/><path class="cls-2" d="M311.51,600.93c-48.55-61.21-51.08-126.07-.25-192,20.27,26.61,34.9,55.28,36.87,89C350.44,537.15,334.42,570.16,311.51,600.93Z"/><path class="cls-2" d="M166.3,59.48C229.1,73,281.61,163.91,261.39,224.13,197.89,209.31,146,119.53,166.3,59.48Z"/><path class="cls-2" d="M456.46,59.43c11.57,80.85-23.91,137.18-96.18,165-4.72-37.86-1.39-74,19.33-107C394.61,93.5,435.28,63.13,456.46,59.43Z"/><path class="cls-2" d="M211.91,310.28c-61.57,49.63-129,49.52-190.87,0C82.67,260.91,150.17,260.88,211.91,310.28Z"/><path class="cls-2" d="M396.54,261.36c33.14-80.77,92.14-106.26,166.59-96.07-13.56,30.86-31,58.15-59.56,76.75C470.86,263.33,434.54,265,396.54,261.36Z"/><path class="cls-2" d="M397,359.63c81.06-10.47,136.06,21.75,165.43,95.77C486.05,466.6,427.07,436.52,397,359.63Z"/><path class="cls-2" d="M456.3,561.54c-74-28.87-107.36-86.61-95.54-165.21C434,424.74,468.07,482.19,456.3,561.54Z"/><path class="cls-2" d="M59.05,164.79c35.54-3.95,69.09-2.29,100.14,14.83,32.68,18,51.85,47.44,67.05,81.57-36,3.91-70.06,2.36-101.39-15.44C92.89,227.6,73.87,198.64,59.05,164.79Z"/><path class="cls-2" d="M602.09,310.68c-30.46,22.06-62.35,38.08-100.46,36.73-34.94-1.25-64.36-16.48-92-36.84C474.15,260.63,538.47,261.31,602.09,310.68Z"/></svg>