<svg id="Calque_1" data-name="Calque 1" xmlns="http://www.w3.org/2000/svg" viewBox="0 0 1040 940"><defs><style>.cls-1{fill:#f9d425;}.cls-2{fill:#fff;}</style></defs><title>Plan de travail 8</title><path class="cls-1" d="M687.39,915c-44,21.59-236.45-26.81-276.79-131.53L264.52,404.2q-2-5.18-4.3-10.24a155.51,155.51,0,0,1,73-204.09h0a155.5,155.5,0,0,1,206.53,68c1.47,2.84,3.06,5.61,4.69,8.36L753.19,617.05C810.26,713,731.38,893.41,687.39,915Z"/><path d="M656.77,940a229.78,229.78,0,0,1-29.26-2c-28.22-3.69-60.14-12.14-89.88-23.8-43.16-16.91-119.47-55.44-145.69-123.52L245.86,411.39c-1.2-3.12-2.49-6.19-3.83-9.13A175.5,175.5,0,0,1,557.5,248.64c1.12,2.16,2.43,4.49,4.12,7.33L770.38,606.82c37.3,62.69,20.72,146.56,7.52,191C762,851.4,729.6,916.56,696.2,933h0C685.38,938.27,671,940,656.77,940Zm30.62-25h0ZM401.61,193.91a135.56,135.56,0,0,0-123.2,191.74c1.68,3.67,3.28,7.49,4.78,11.37L429.27,776.28c15.12,39.27,59.94,76,123,100.65,59.91,23.48,112.74,26.8,126.36,20.12,13.44-6.6,42.89-49.8,61-110.66,19.29-64.9,18-122.9-3.56-159.12L527.24,276.42c-2.1-3.53-3.77-6.51-5.26-9.37a135.79,135.79,0,0,0-120.37-73.14Z"/><path d="M421.22,826.14a20,20,0,0,1-8.83-38L755.33,619.89A20,20,0,0,1,773,655.8L430,824.09A19.89,19.89,0,0,1,421.22,826.14Z"/><path d="M384.65,751.62a20,20,0,0,1-8.82-38L718.76,545.38a20,20,0,1,1,17.62,35.91L393.45,749.57A19.82,19.82,0,0,1,384.65,751.62Z"/><path d="M359.76,671.39a20,20,0,0,1-8.83-38l317.8-156a20,20,0,0,1,17.62,35.91l-317.8,156A19.89,19.89,0,0,1,359.76,671.39Z"/><path d="M329.48,593.79a20,20,0,0,1-8.83-38L625.88,406.05A20,20,0,1,1,643.5,442L338.27,591.74A19.92,19.92,0,0,1,329.48,593.79Z"/><path d="M303.68,514a20,20,0,0,1-8.82-38L580.34,335.94A20,20,0,0,1,598,371.85L312.48,511.94A19.93,19.93,0,0,1,303.68,514Z"/><path d="M486.51,886.55a20,20,0,0,1-8.82-38L763.16,708.5a20,20,0,0,1,17.63,35.91L495.31,884.5A20,20,0,0,1,486.51,886.55Z"/><path class="cls-2" d="M397.24,325l-26.6,402.72-2.41,36.5A175.5,175.5,0,1,1,79.8,602.33l54.6-47.69Z"/><path d="M195.54,930q-6.69,0-13.45-.46A195.5,195.5,0,0,1,66.64,587.27L384.08,310a20,20,0,0,1,33.12,16.38L390.6,729.08l-2.42,36.5a17.63,17.63,0,0,1-.24,2A195.54,195.54,0,0,1,195.54,930ZM374.11,371.8,93,617.4a155.5,155.5,0,0,0,204.6,234.22,154.84,154.84,0,0,0,50.78-89.74l2.34-35.44Z"/><path class="cls-2" d="M396.78,325,731.6,550.36,762,570.78a175.5,175.5,0,1,0,48.39-327.21l-71.13,14Z"/><path d="M844,611.31a195.05,195.05,0,0,1-91.47-22.88c-.6-.32-1.2-.68-1.77-1.06L720.44,567,385.61,341.58a20,20,0,0,1,7.31-36.21l413.56-81.43c105.76-20.83,208.76,48.28,229.58,154.05A195.49,195.49,0,0,1,882,607.58,196.47,196.47,0,0,1,844,611.31Zm-71.79-57.72A155.5,155.5,0,0,0,996.81,385.72c-16.56-84.13-98.48-139.09-182.61-122.53L447.92,335.31,742.77,533.76Z"/><path d="M376.36,189a19.94,19.94,0,0,1-19.91-22.14L368.42,56A20,20,0,0,1,379.5,40.17L457.6,1.84a20,20,0,1,1,17.62,35.91L407,71.23l-10.79,99.91A20,20,0,0,1,376.36,189Z"/><path d="M292.1,230.32a19.85,19.85,0,0,1-10.45-3L196,174.77,127.8,208.24a20,20,0,0,1-17.62-35.91L188.28,134a20,20,0,0,1,19.28.91l95,58.36a20,20,0,0,1-10.48,37Z"/></svg>