<svg id="Calque_1" data-name="Calque 1" xmlns="http://www.w3.org/2000/svg" viewBox="0 0 272 81"><defs><style>.cls-1{fill:#f9d425;}</style></defs><title>Plan de travail 9</title><path class="cls-1" d="M105.3,10.63H110l8.29,22.72H113l-1.76-5.08h-7.07l-1.73,5.08H97Zm5,14-2.66-8-2.72,8Z"/><path class="cls-1" d="M120.57,33.35V10.63h5.25V28.75h11v4.6Z"/><path class="cls-1" d="M139.29,33.35V10.63h5.25V28.75h11v4.6Z"/><path class="cls-1" d="M169.78,10.63h4.74l8.29,22.72h-5.38l-1.76-5.08H168.6l-1.73,5.08H161.5Zm5,14-2.66-8-2.72,8Z"/><path class="cls-1" d="M203.83,27.53a5.1,5.1,0,0,1-.61,2.56,5.23,5.23,0,0,1-1.66,1.81A8,8,0,0,1,199.1,33a12,12,0,0,1-3,.36H185.05V10.63h12.64a4.49,4.49,0,0,1,2.14.52,5.27,5.27,0,0,1,1.63,1.32,6.06,6.06,0,0,1,1,1.86,6.26,6.26,0,0,1-.44,5.2,5.18,5.18,0,0,1-2.45,2.18,5.87,5.87,0,0,1,3.09,2A6.07,6.07,0,0,1,203.83,27.53ZM190.3,15.11v4.71h5.15a2.25,2.25,0,0,0,1.53-.58,2.22,2.22,0,0,0,.68-1.79,2.36,2.36,0,0,0-.6-1.73,1.93,1.93,0,0,0-1.42-.61Zm8.19,11.36a2.75,2.75,0,0,0-.61-1.79,1.92,1.92,0,0,0-1.54-.73h-6v5h5.82a2.31,2.31,0,0,0,1.7-.68A2.39,2.39,0,0,0,198.49,26.47Z"/><path class="cls-1" d="M216.89,33.55a10.45,10.45,0,0,1-4.61-1,11.37,11.37,0,0,1-3.55-2.6,12,12,0,0,1-3.11-8,11.47,11.47,0,0,1,.85-4.32A11.65,11.65,0,0,1,208.84,14a11.42,11.42,0,0,1,3.6-2.53,10.85,10.85,0,0,1,4.54-.94,10.59,10.59,0,0,1,4.61,1,11.12,11.12,0,0,1,3.55,2.62,12.1,12.1,0,0,1,2.28,3.71,11.79,11.79,0,0,1,.8,4.23,11.47,11.47,0,0,1-.85,4.32,11.51,11.51,0,0,1-5.94,6.21A10.71,10.71,0,0,1,216.89,33.55ZM211,22a8.68,8.68,0,0,0,.38,2.54,6.92,6.92,0,0,0,1.14,2.19,5.42,5.42,0,0,0,4.43,2.11,5.45,5.45,0,0,0,2.62-.6,5.75,5.75,0,0,0,1.86-1.59,6.74,6.74,0,0,0,1.1-2.21,8.52,8.52,0,0,0,.37-2.51,8.68,8.68,0,0,0-.38-2.54,6.59,6.59,0,0,0-1.15-2.18,5.73,5.73,0,0,0-1.88-1.5,6.05,6.05,0,0,0-5.15,0,5.92,5.92,0,0,0-1.85,1.55,6.32,6.32,0,0,0-1.12,2.19A8.64,8.64,0,0,0,211,22Z"/><path class="cls-1" d="M241,28.87a4.27,4.27,0,0,0,2.27-.56,4.34,4.34,0,0,0,1.5-1.48,6.26,6.26,0,0,0,.82-2.13,12.49,12.49,0,0,0,.24-2.45V10.63h5.25V22.25a15.69,15.69,0,0,1-.6,4.42,10.1,10.1,0,0,1-1.82,3.58,8.63,8.63,0,0,1-3.14,2.42,10.81,10.81,0,0,1-4.52.88,10.55,10.55,0,0,1-4.64-.93,8.66,8.66,0,0,1-3.12-2.48,10.25,10.25,0,0,1-1.76-3.6,16,16,0,0,1-.56-4.29V10.63h5.24V22.25a11.83,11.83,0,0,0,.26,2.5,6.69,6.69,0,0,0,.83,2.11,4.11,4.11,0,0,0,3.75,2Z"/><path class="cls-1" d="M272.47,15.24h-6.91V33.35h-5.25V15.24h-6.94V10.63h19.1Z"/><path class="cls-1" d="M117.91,65.93a5.1,5.1,0,0,1-.61,2.56,5.23,5.23,0,0,1-1.66,1.81,8,8,0,0,1-2.46,1.09,12,12,0,0,1-3,.36H99.13V49h12.64a4.49,4.49,0,0,1,2.14.52,5.27,5.27,0,0,1,1.63,1.32,6.06,6.06,0,0,1,1,1.86,6.26,6.26,0,0,1-.44,5.2,5.18,5.18,0,0,1-2.45,2.18,5.87,5.87,0,0,1,3.09,2A6.07,6.07,0,0,1,117.91,65.93ZM104.38,53.51v4.71h5.15a2.25,2.25,0,0,0,1.53-.58,2.22,2.22,0,0,0,.68-1.79,2.36,2.36,0,0,0-.6-1.73,1.93,1.93,0,0,0-1.42-.61Zm8.19,11.36a2.7,2.7,0,0,0-.61-1.79,1.92,1.92,0,0,0-1.54-.73h-6v5h5.82a2.31,2.31,0,0,0,1.7-.68A2.39,2.39,0,0,0,112.57,64.87Z"/><path class="cls-1" d="M137,67.15v4.6H121V49H136.7v4.61H126.26v4.42h9v4.25h-9v4.84Z"/><path class="cls-1" d="M156.15,67.15v4.6h-16V49h15.68v4.61H145.43v4.42h9v4.25h-9v4.84Z"/><path class="cls-1" d="M172.5,55.69a3.27,3.27,0,0,0-.67-.48,13.4,13.4,0,0,0-1.44-.74,13.87,13.87,0,0,0-1.89-.67,7.56,7.56,0,0,0-2-.29q-2.82,0-2.82,1.89a1.49,1.49,0,0,0,.3,1,2.64,2.64,0,0,0,.9.69,8.24,8.24,0,0,0,1.49.56l2.08.58a27.41,27.41,0,0,1,2.94,1,7.91,7.91,0,0,1,2.23,1.31,5.44,5.44,0,0,1,1.4,1.91,7.58,7.58,0,0,1-.22,5.93,6.18,6.18,0,0,1-1.9,2.15,8.05,8.05,0,0,1-2.72,1.18A13.35,13.35,0,0,1,167,72a17.36,17.36,0,0,1-2.56-.19,19.4,19.4,0,0,1-2.56-.56,21.76,21.76,0,0,1-2.42-.88,13.17,13.17,0,0,1-2.16-1.19l2.31-4.57a4.12,4.12,0,0,0,.83.61,12.66,12.66,0,0,0,1.74.89,17,17,0,0,0,2.32.8,9.51,9.51,0,0,0,2.59.35c1.86,0,2.79-.56,2.79-1.69a1.43,1.43,0,0,0-.42-1.06,4,4,0,0,0-1.15-.75,12.79,12.79,0,0,0-1.74-.62l-2.2-.64a19.7,19.7,0,0,1-2.72-1,7.46,7.46,0,0,1-1.9-1.3,4.67,4.67,0,0,1-1.12-1.7,6.11,6.11,0,0,1-.37-2.24,7.2,7.2,0,0,1,.67-3.16,6.84,6.84,0,0,1,1.83-2.32,8,8,0,0,1,2.67-1.43,10.58,10.58,0,0,1,3.22-.48,12.19,12.19,0,0,1,2.33.23,18.3,18.3,0,0,1,2.21.57,16.86,16.86,0,0,1,2,.8q.92.45,1.68.9Z"/><path class="cls-1" d="M47.74,81H30.44L21.81,65.88,30.44,50.8h17.3l8.63,15.08Zm-14.4-5h11.5l5.77-10.07L44.84,55.8H33.34L27.57,65.88Z"/><path class="cls-1" d="M69.43,68.38H52.13L43.49,53.3l8.64-15.07h17.3L78.06,53.3Zm-14.4-5h11.5L72.3,53.3,66.53,43.23H55L49.26,53.3Z"/><path class="cls-1" d="M47.74,55.8H30.44L21.81,40.73l8.63-15.08h17.3l8.63,15.08Zm-14.4-5h11.5l5.77-10.07L44.84,30.65H33.34L27.57,40.73Z"/><path class="cls-1" d="M69.43,43.23H52.13L43.49,28.15l8.64-15.07h17.3l8.63,15.07Zm-14.4-5h11.5L72.3,28.15,66.53,18.08H55L49.26,28.15Z"/><path class="cls-1" d="M26.05,68.38H8.75L.12,53.3,8.75,38.23h17.3L34.69,53.3Zm-14.4-5H23.16L28.93,53.3,23.16,43.23H11.65L5.88,53.3Z"/><path class="cls-1" d="M26.05,43.23H8.75L.12,28.15,8.75,13.08h17.3l8.64,15.07Zm-14.4-5H23.16l5.77-10.08L23.16,18.08H11.65L5.88,28.15Z"/><path class="cls-1" d="M47.74,30.65H30.44L21.81,15.58,30.44.5h17.3l8.63,15.08Zm-14.4-5h11.5l5.77-10.07L44.84,5.5H33.34L27.57,15.58Z"/></svg>