<?xml version="1.0" encoding="utf-8"?>
<!-- Generator: Adobe Illustrator 23.0.0, SVG Export Plug-In . SVG Version: 6.00 Build 0)  -->
<svg version="1.1" id="Calque_1" xmlns="http://www.w3.org/2000/svg" xmlns:xlink="http://www.w3.org/1999/xlink" x="0px" y="0px"
	 viewBox="0 0 272 81" style="enable-background:new 0 0 272 81;" xml:space="preserve">
<style type="text/css">
	.st0{fill:#FF8800;}
	.st1{fill:#F9D425;stroke:#FFFFFF;stroke-width:14;stroke-miterlimit:10;}
	.st2{fill:#F9D425;}
	.st3{fill:#FFFFFF;}
	.st4{fill:#00A838;}
	.st5{opacity:0.7;fill:#FFFFFF;}
	.st6{fill:#ADEEE3;}
	.st7{fill:#64E58F;}
	.st8{fill:none;stroke:#F9D425;stroke-width:5;stroke-miterlimit:10;}
	.st9{fill:none;stroke:#1F0300;stroke-width:40;stroke-miterlimit:10;}
	.st10{fill:#F9D425;stroke:#000000;stroke-width:40;stroke-linecap:round;stroke-linejoin:round;stroke-miterlimit:10;}
	.st11{fill:none;stroke:#000000;stroke-width:40;stroke-linecap:round;stroke-linejoin:round;stroke-miterlimit:10;}
	.st12{fill:#FFFFFF;stroke:#000000;stroke-width:40;stroke-linecap:round;stroke-linejoin:round;stroke-miterlimit:10;}
	.st13{fill:url(#);}
	.st14{fill:#754C24;}
</style>
<g>
	<g>
		<path d="M105.3,10.6h4.7l8.3,22.7H113l-1.8-5.1h-7.1l-1.7,5.1H97L105.3,10.6z M110.3,24.7l-2.7-8l-2.7,8H110.3z"/>
		<path d="M120.6,33.4V10.6h5.2v18.1h11v4.6H120.6z"/>
		<path d="M139.3,33.4V10.6h5.2v18.1h11v4.6H139.3z"/>
		<path d="M169.8,10.6h4.7l8.3,22.7h-5.4l-1.8-5.1h-7.1l-1.7,5.1h-5.4L169.8,10.6z M174.8,24.7l-2.7-8l-2.7,8H174.8z"/>
		<path d="M203.8,27.5c0,1-0.2,1.8-0.6,2.6c-0.4,0.7-1,1.3-1.7,1.8s-1.5,0.8-2.5,1.1c-0.9,0.2-1.9,0.4-3,0.4H185V10.6h12.6
			c0.8,0,1.5,0.2,2.1,0.5c0.6,0.3,1.2,0.8,1.6,1.3s0.8,1.2,1,1.9c0.2,0.7,0.4,1.4,0.4,2.1c0,1.1-0.3,2.1-0.8,3.1
			c-0.5,1-1.4,1.7-2.4,2.2c1.3,0.4,2.3,1.1,3.1,2C203.5,24.7,203.8,26,203.8,27.5z M190.3,15.1v4.7h5.2c0.6,0,1.1-0.2,1.5-0.6
			c0.4-0.4,0.7-1,0.7-1.8c0-0.7-0.2-1.3-0.6-1.7c-0.4-0.4-0.9-0.6-1.4-0.6H190.3z M198.5,26.5c0-0.7-0.2-1.3-0.6-1.8
			c-0.4-0.5-0.9-0.7-1.5-0.7h-6v5h5.8c0.7,0,1.2-0.2,1.7-0.7C198.3,27.8,198.5,27.2,198.5,26.5z"/>
		<path d="M216.9,33.5c-1.7,0-3.2-0.3-4.6-1c-1.4-0.7-2.6-1.5-3.6-2.6c-1-1.1-1.7-2.3-2.3-3.7c-0.5-1.4-0.8-2.8-0.8-4.3
			c0-1.5,0.3-2.9,0.8-4.3c0.6-1.4,1.4-2.6,2.4-3.7c1-1.1,2.2-1.9,3.6-2.5c1.4-0.6,2.9-0.9,4.5-0.9c1.7,0,3.2,0.3,4.6,1
			c1.4,0.7,2.6,1.5,3.6,2.6c1,1.1,1.7,2.3,2.3,3.7c0.5,1.4,0.8,2.8,0.8,4.2c0,1.5-0.3,2.9-0.8,4.3c-0.6,1.4-1.3,2.6-2.4,3.7
			c-1,1.1-2.2,1.9-3.6,2.5C220,33.2,218.5,33.5,216.9,33.5z M211,22c0,0.9,0.1,1.7,0.4,2.5c0.3,0.8,0.6,1.6,1.1,2.2
			c0.5,0.6,1.1,1.2,1.9,1.5c0.7,0.4,1.6,0.6,2.6,0.6c1,0,1.9-0.2,2.6-0.6c0.7-0.4,1.4-0.9,1.9-1.6c0.5-0.7,0.9-1.4,1.1-2.2
			c0.2-0.8,0.4-1.7,0.4-2.5c0-0.9-0.1-1.7-0.4-2.5c-0.3-0.8-0.6-1.5-1.2-2.2s-1.1-1.1-1.9-1.5c-0.7-0.4-1.6-0.6-2.5-0.6
			c-1,0-1.9,0.2-2.6,0.6c-0.7,0.4-1.4,0.9-1.9,1.6c-0.5,0.6-0.9,1.4-1.1,2.2C211.1,20.3,211,21.2,211,22z"/>
		<path d="M241,28.9c0.9,0,1.7-0.2,2.3-0.6c0.6-0.4,1.1-0.9,1.5-1.5s0.7-1.3,0.8-2.1c0.2-0.8,0.2-1.6,0.2-2.4V10.6h5.2v11.6
			c0,1.6-0.2,3.1-0.6,4.4c-0.4,1.4-1,2.6-1.8,3.6c-0.8,1-1.9,1.8-3.1,2.4c-1.3,0.6-2.8,0.9-4.5,0.9c-1.8,0-3.4-0.3-4.6-0.9
			c-1.3-0.6-2.3-1.4-3.1-2.5s-1.4-2.2-1.8-3.6c-0.4-1.4-0.6-2.8-0.6-4.3V10.6h5.2v11.6c0,0.9,0.1,1.7,0.3,2.5
			c0.2,0.8,0.4,1.5,0.8,2.1c0.4,0.6,0.9,1.1,1.5,1.5C239.4,28.7,240.1,28.9,241,28.9z"/>
		<path d="M272.5,15.2h-6.9v18.1h-5.2V15.2h-6.9v-4.6h19.1V15.2z"/>
		<path d="M117.9,65.9c0,1-0.2,1.8-0.6,2.6c-0.4,0.7-1,1.3-1.7,1.8s-1.5,0.8-2.5,1.1c-0.9,0.2-1.9,0.4-3,0.4H99.1V49h12.6
			c0.8,0,1.5,0.2,2.1,0.5c0.6,0.3,1.2,0.8,1.6,1.3s0.8,1.2,1,1.9c0.2,0.7,0.4,1.4,0.4,2.1c0,1.1-0.3,2.1-0.8,3.1
			c-0.5,1-1.4,1.7-2.4,2.2c1.3,0.4,2.3,1.1,3.1,2C117.5,63.1,117.9,64.4,117.9,65.9z M104.4,53.5v4.7h5.2c0.6,0,1.1-0.2,1.5-0.6
			c0.4-0.4,0.7-1,0.7-1.8c0-0.7-0.2-1.3-0.6-1.7c-0.4-0.4-0.9-0.6-1.4-0.6H104.4z M112.6,64.9c0-0.7-0.2-1.3-0.6-1.8
			c-0.4-0.5-0.9-0.7-1.5-0.7h-6v5h5.8c0.7,0,1.2-0.2,1.7-0.7C112.3,66.2,112.6,65.6,112.6,64.9z"/>
		<path d="M137,67.1v4.6h-16V49h15.7v4.6h-10.4v4.4h9v4.3h-9v4.8H137z"/>
		<path d="M156.2,67.1v4.6h-16V49h15.7v4.6h-10.4v4.4h9v4.3h-9v4.8H156.2z"/>
		<path d="M172.5,55.7c-0.1-0.1-0.3-0.2-0.7-0.5c-0.4-0.2-0.9-0.5-1.4-0.7c-0.6-0.3-1.2-0.5-1.9-0.7c-0.7-0.2-1.4-0.3-2-0.3
			c-1.9,0-2.8,0.6-2.8,1.9c0,0.4,0.1,0.7,0.3,1c0.2,0.3,0.5,0.5,0.9,0.7c0.4,0.2,0.9,0.4,1.5,0.6c0.6,0.2,1.3,0.4,2.1,0.6
			c1.1,0.3,2.1,0.6,2.9,1c0.9,0.4,1.6,0.8,2.2,1.3c0.6,0.5,1.1,1.2,1.4,1.9c0.3,0.7,0.5,1.6,0.5,2.7c0,1.3-0.2,2.4-0.7,3.2
			s-1.1,1.6-1.9,2.1c-0.8,0.5-1.7,0.9-2.7,1.2c-1,0.2-2.1,0.4-3.2,0.4c-0.8,0-1.7-0.1-2.6-0.2c-0.9-0.1-1.7-0.3-2.6-0.6
			c-0.8-0.2-1.6-0.5-2.4-0.9c-0.8-0.3-1.5-0.7-2.2-1.2l2.3-4.6c0.1,0.1,0.4,0.3,0.8,0.6c0.5,0.3,1.1,0.6,1.7,0.9
			c0.7,0.3,1.5,0.6,2.3,0.8c0.9,0.2,1.7,0.4,2.6,0.4c1.9,0,2.8-0.6,2.8-1.7c0-0.4-0.1-0.8-0.4-1.1c-0.3-0.3-0.7-0.5-1.2-0.8
			c-0.5-0.2-1.1-0.4-1.7-0.6c-0.7-0.2-1.4-0.4-2.2-0.6c-1-0.3-2-0.7-2.7-1c-0.8-0.4-1.4-0.8-1.9-1.3c-0.5-0.5-0.9-1.1-1.1-1.7
			c-0.2-0.6-0.4-1.4-0.4-2.2c0-1.2,0.2-2.3,0.7-3.2c0.4-0.9,1.1-1.7,1.8-2.3s1.7-1.1,2.7-1.4c1-0.3,2.1-0.5,3.2-0.5
			c0.8,0,1.6,0.1,2.3,0.2c0.8,0.1,1.5,0.3,2.2,0.6c0.7,0.2,1.4,0.5,2,0.8c0.6,0.3,1.2,0.6,1.7,0.9L172.5,55.7z"/>
	</g>
	<g>
		<path d="M47.7,80.9H30.4l-8.6-15.1l8.6-15.1h17.3l8.6,15.1L47.7,80.9z M33.3,75.9h11.5l5.8-10.1l-5.8-10.1H33.3l-5.8,10.1
			L33.3,75.9z"/>
		<path d="M69.4,68.4H52.1l-8.6-15.1l8.6-15.1h17.3l8.6,15.1L69.4,68.4z M55,63.4h11.5l5.8-10.1l-5.8-10.1H55l-5.8,10.1L55,63.4z"/>
		<path d="M47.7,55.8H30.4l-8.6-15.1l8.6-15.1h17.3l8.6,15.1L47.7,55.8z M33.3,50.8h11.5l5.8-10.1l-5.8-10.1H33.3l-5.8,10.1
			L33.3,50.8z"/>
		<path d="M69.4,43.2H52.1l-8.6-15.1l8.6-15.1h17.3l8.6,15.1L69.4,43.2z M55,38.2h11.5l5.8-10.1l-5.8-10.1H55l-5.8,10.1L55,38.2z"/>
		<path d="M26.1,68.4H8.8L0.1,53.3l8.6-15.1h17.3l8.6,15.1L26.1,68.4z M11.7,63.4h11.5l5.8-10.1l-5.8-10.1H11.7L5.9,53.3L11.7,63.4z
			"/>
		<path d="M26.1,43.2H8.8L0.1,28.1l8.6-15.1h17.3l8.6,15.1L26.1,43.2z M11.7,38.2h11.5l5.8-10.1l-5.8-10.1H11.7L5.9,28.1L11.7,38.2z
			"/>
		<path d="M47.7,30.6H30.4l-8.6-15.1l8.6-15.1h17.3l8.6,15.1L47.7,30.6z M33.3,25.6h11.5l5.8-10.1L44.8,5.5H33.3l-5.8,10.1
			L33.3,25.6z"/>
	</g>
</g>
</svg>
